<svg xmlns="http://www.w3.org/2000/svg" viewBox="0 0 980 980" fill="none" shape-rendering="auto"><metadata xmlns:rdf="http://www.w3.org/1999/02/22-rdf-syntax-ns#" xmlns:xsi="http://www.w3.org/2001/XMLSchema-instance" xmlns:dc="http://purl.org/dc/elements/1.1/" xmlns:dcterms="http://purl.org/dc/terms/"><rdf:RDF><rdf:Description><dc:title>Lorelei</dc:title><dc:creator>Lisa Wischofsky</dc:creator><dc:source xsi:type="dcterms:URI">https://www.figma.com/community/file/1198749693280469639</dc:source><dcterms:license xsi:type="dcterms:URI">https://creativecommons.org/publicdomain/zero/1.0/</dcterms:license><dc:rights>Remix of „Lorelei” (https://www.figma.com/community/file/1198749693280469639) by „Lisa Wischofsky”, licensed under „CC0 1.0” (https://creativecommons.org/publicdomain/zero/1.0/)</dc:rights></rdf:Description></rdf:RDF></metadata><mask id="viewboxMask"><rect width="980" height="980" rx="0" ry="0" x="0" y="0" fill="#fff" /></mask><g mask="url(#viewboxMask)"><g transform="translate(10 -60)"><path fill-rule="evenodd" clip-rule="evenodd" d="M512 165c2-3 2-7-1-8l-7 1-2 1-22 11c-27 16-50 39-67 64l-4 3h-2c-12 4-24 8-36 10l-6 1c-7 1-15 2-22 5-20 7-39 18-54 33l-8 9-14 13c-16 18-29 38-41 59a356 356 0 0 0-40 155c0 18-1 37 1 55 2 21 6 43 15 63a150 150 0 0 0 53 62l6 4 10 9c-3 12-6 24-14 34a69 69 0 0 1-37 23c-9 3-18 5-27 4 0 2 3 4 5 5 11 5 21 4 32 1l-30 16-4 1-17 6h-1l-3 3c-1 2 0 4 1 6l11 10c10 6 20 12 31 15 20 8 42 9 63 4 12-2 22-8 32-15 3 9 12 13 21 13l8-1 13-2 31-7 50-11 32-3h42c18 0 36 3 54 8l11 4c7 3 14 6 23 7 17 2 34-3 49-10 5-2 8-4 11-9a131 131 0 0 0 76-15c2-1 4-4 2-6l-4-4-2-1a168 168 0 0 1-54-71c-4-11-8-24-6-36 0-5 2-9 6-12l7-2h1l-3-60c28-27 51-60 62-99l-1 12a112 112 0 0 1-36 67c-2 2-4 4-7 4 0 3 2 5 4 6 6 1 12-2 16-5 14-9 26-22 32-38 8-20 11-43 11-64 0-25-3-50-8-74-3-12-5-23-9-34v-7c5-19 4-40-2-59-7-25-22-46-42-62-10-9-22-16-35-22a183 183 0 0 0-82-15l6-3 10-4c14-5 29-8 44-9a118 118 0 0 1 32 2l4 1 8 1v-2c0-2-1-5-3-6l-16-10c-13-5-25-9-38-12-24-6-50-4-74 0-21 3-41 10-60 18l-8 4-10 5 14-23 13-14 3-1 3-2ZM208 482l1-9-3 13a382 382 0 0 0-2 114 160 160 0 0 0 39 78 304 304 0 0 1-36-189l1-7Z" fill="#000000"/><path d="M495 234c28 1 56 6 84 15a201 201 0 0 1 100 65c19 25 31 55 35 86a361 361 0 0 1 2 101l-5 34-4 20c-1 2-1 2-3 2-2-4-2-8-2-12-1-15 1-29 2-44 1-24 3-48 1-72l-6-45c-7-28-20-54-40-75-18-18-40-33-63-43-22-9-44-15-67-19-18-3-36-4-54-4a277 277 0 0 0-128 29c-13 9-25 20-35 32a276 276 0 0 0-55 139c-1 24 0 47 8 70l7 15 12 1 1 3c-3 2-7 2-11 3-10 2-20 6-29 12-7 5-14 11-18 19-5 10-3 22-1 33 5 19 17 37 33 49 11 9 25 14 39 16 10 2 20 0 30-1 5 4 8 12 11 17l18 27a136 136 0 0 0 66 50c22 9 45 14 68 19l41 8 17 5v4h-12a535 535 0 0 1-67-8 255 255 0 0 1-84-33c-11-7-21-16-29-27a214 214 0 0 1-16 123c-15 27-40 48-70 57-3 1-7 2-10 1-2 0-2-1-2-3 1-3 4-5 6-6 12-8 26-14 38-23 13-11 24-23 31-38 6-15 10-32 12-49 2-13 3-26 2-40l-4-38-18-36-19 4a88 88 0 0 1-75-38 93 93 0 0 1-20-58c0-9 3-18 8-25s12-13 19-17c5-4 12-6 18-8l-9-24c-5-22-5-45-2-67a292 292 0 0 1 63-149c9-10 18-19 29-26 7-4 14-5 20-9 43-19 90-25 137-22Z" fill="#000"/><path d="M475 243a276 276 0 0 1 121 23c23 10 45 25 63 43 20 21 33 47 40 75l6 45c2 24 0 48-1 72-1 15-3 29-2 44 0 4 0 8 2 12l-1 20c-2 5-2 10-2 16-2 24-2 49-6 74-1 12-3 25-8 36-3 9-8 17-15 24-12 13-27 24-43 33-19 11-39 16-58 24-5 2-10 4-13 8 8 1 15 0 23-2-5 12-6 24-6 36 0 5-1 11 1 16 3 5 8 9 13 12l35 13c22 8 43 18 65 27 2 4 5 7 6 12 6 11 7 23 3 35-5 13-15 24-27 31-16 11-36 19-55 24a494 494 0 0 1-235-7c-20-7-40-14-58-24-14-8-29-18-40-31-6-8-11-19-12-29a122 122 0 0 0 86-107c4-24 4-49 0-73 8 11 18 20 29 27l27 14a331 331 0 0 0 124 27h12v-4l-17-5-41-8c-23-5-46-10-68-19-13-6-27-13-39-21-10-9-19-18-27-29l-18-27c-3-5-6-13-11-17-10 1-20 3-30 1-14-2-28-7-39-16a94 94 0 0 1-33-49c-2-11-4-23 1-33 4-8 11-14 18-19 9-6 19-10 29-12 4-1 8-1 11-3l-1-3-12-1-7-15c-8-23-9-46-7-70a276 276 0 0 1 54-139c10-12 22-23 35-32a277 277 0 0 1 128-30Z" fill="#ffffff"/><path d="M260 571c4 0 7 0 11 2 5 1 11 4 14 8 2 3 2 7 0 10-5 6-12 10-16 16 6 4 14 6 21 9 4 1 8 3 11 6l1 3-8-2-24-7c-4-1-8-3-9-7-1-3 1-7 3-10l15-13c-4-7-15-8-19-15ZM703 577l2 3 2 16a483 483 0 0 1-2 89c-2 11-5 23-10 33a198 198 0 0 1-106 71c-1 14-3 31-2 47l5 5c8 6 18 9 27 12a451 451 0 0 1 68 28c7 4 13 9 18 15-5 1-10-1-16-2-22-9-43-19-65-27l-35-13c-5-3-10-7-13-12-2-5-1-11-1-16 0-12 1-24 6-36-8 2-15 3-23 2 3-4 8-6 13-8 19-8 39-13 58-24 16-9 31-20 43-33 7-7 12-15 15-24 5-11 7-24 8-36 4-25 4-50 6-74 0-6 0-11 2-16Z" fill="#000"/><path d="M686 474c5 2 10 7 12 12 3 8 3 17 1 25-1 4-4 8-9 8s-9-5-8-10c0-8 3-15 1-23l-5-4c-6 0-12 3-17 5 2 3 4 5 4 8 2 7 1 14 0 21-1 8-4 14-9 20-3 2-7 6-11 7-5 1-10-1-12-5-4-5-4-11-3-16l-6 8c-1 2-2 3-4 3-1-2 0-6 1-8a95 95 0 0 1 44-49c6-3 14-4 21-2ZM470 481c18 6 35 17 46 33 3 4 6 9 7 14 1 3 1 5-1 6-3 1-6-3-8-5-3 6-2 13-6 18-3 4-7 8-11 10-6 3-13 3-19 1s-10-8-14-13c-5-10-5-20-4-30 1-8 4-15 9-21-14-5-29-8-42-2-10 4-16 11-19 21-1 5 0 11-3 15-3 3-9 3-12 0s-4-7-3-11c1-12 7-22 16-30 6-4 12-7 19-9 15-4 31-3 45 3Z" fill="#000000"/><path d="M524 402c7 3 12 9 15 16 4 6 6 12 4 19-1 2-2 5-4 3-3-2-5-6-6-9l-14 2-26 3-39 4c-12 1-24 0-36-1-3 0-7-1-9-3-3-2-2-7 1-8 9-3 20-2 30-4 7-1 14-4 20-6 9-3 17-7 26-9l20-5c5-1 12-4 18-2ZM631 404c11 0 19 6 30 8 6 2 14 1 20 5 2 1 3 4 2 7-2 2-5 2-8 2l-14 1-25 6-23 2-5 18-3 3-2-5c-1-10 0-21 5-30 2-4 4-9 8-12 4-4 10-6 15-5Z" fill="#000000"/><path d="M594 572a37 37 0 0 1 19 29c0 9-5 18-13 22l-17 7c-4 1-6 2-9 0-2-3-1-4 1-6 6-5 15-7 21-12 3-2 5-5 5-9 0-10-5-17-7-26v-5Z" fill="#000000"/><path d="M608 667c2 0 4 0 5 2l-1 15c5-1 10-4 16-2 0 4-4 7-7 9l-35 12c-17 4-34 7-51 8-7 1-15-1-22-3-2-1-4-1-4-4 4-2 9 0 12-1 2-5 7-7 11-10l31-19c3-1 7-4 10-4 4-1 7 4 11 4 8-2 16-7 24-7ZM607 712c1 4 1 8-1 11-2 5-7 9-12 11-6 2-12 3-18 2-2 0-6-2-6-5 1-2 5-2 7-3 8-4 18-7 25-13 2-1 3-3 5-3Z" fill="#000000"/><path d="M631 178a213 213 0 0 1 54 22c3 2 3 5 4 8l-13-2c-10-1-20-3-30-2-22 1-43 6-62 16 16 0 31 0 47 4 29 6 56 18 77 39 17 16 30 36 36 59 5 19 6 39 1 59a127 127 0 0 1-73 84l-20 9-5-2c1-10 4-18 6-27l2-24c0-11-2-22-4-33l-9 20c-9 17-24 32-41 41-12 8-27 13-41 17-18 5-37 7-56 9h-19c-3 0-3-2-5-4l7-10c5-9 11-18 15-28l7-25c4-14 5-28 5-43a299 299 0 0 1-108 125c-12 8-26 13-39 18-6 2-11 4-17 1l2-13 4-30c-7 15-13 32-16 49-5 28-1 55 5 83l2 15c-8 2-16 1-24-2-26-10-49-32-59-59 0-4-4-4-6-6-10-5-18-14-23-23-9-14-15-31-17-48a204 204 0 0 1 30-136c11-20 25-37 41-53a146 146 0 0 1 75-38 432 432 0 0 0 57-16c27-10 51-24 77-36a229 229 0 0 1 133-18Z" fill="#000000"/></g><g transform="translate(10 -60)"><path d="M357 396c9-2 18 4 20 12 1 5 1 12-1 17-3 7-11 10-18 9-9 0-16-9-16-18 0-4 2-7 3-11 3-4 8-8 12-9Z" fill="#000000"/><path d="M358 405c7-2 12 3 13 9 2 8-5 15-13 14-7-2-11-10-8-17 2-3 5-5 8-6Z" fill="#fff"/><path fill-rule="evenodd" clip-rule="evenodd" d="M326 398c-2-4-5-7-9-9-5-1-10 1-14 3-4 1-7 4-9 7-11-4-23 0-30 10-3-4-6-7-10-9-3-1-6 0-9 1l-4 1c-6 1-12 3-16 9-4 7-4 16 0 23 2 5 6 8 11 10-7 1-13 5-17 11l-2-1-9-3c-6 0-12 2-17 6-4 4-8 8-10 13-2 7-1 13 1 20-9 8-13 21-6 32 4 7 10 9 17 11 5 1 11 1 16-1 2 6 6 12 11 15 6 3 14 4 21 1 5-1 10-3 13-8 3-3 3-8 4-12 5-2 9-3 13-7 5-4 9-10 10-16s0-12-2-17c-3-6-9-10-15-12 1-5 2-9 1-14l6 2c2 6 4 11 8 15 7 5 15 7 23 6 6 0 11-4 14-9 2-3 3-7 3-11h1c7 1 14 1 19-4 7-6 9-18 6-27-3-8-9-11-17-14 2-7 2-15-2-22Zm-70 51 2-10-10 6 8 4Z" fill="#000000"/><path d="M236 409c3-2 7-2 10-2 7 2 12 9 11 16 0 6-3 11-8 14-9 5-22-2-22-13 0-6 4-13 9-15ZM309 398c5 0 10 3 12 8 4 6 3 14 1 22 6 2 10 6 12 12 3 5 1 12-3 16-5 4-11 5-17 4-2 7-7 13-14 16-5 1-11 0-15-4-5-4-7-10-8-16-4-1-7-1-10-4-5-4-5-12-2-17l8-6c-3-4-5-10-4-15s4-9 9-10c6-1 11 1 16 5 4-6 8-11 15-11ZM257 460c2 8 0 16-3 23 5 0 9 1 13 4 5 4 7 9 7 15 1 5-1 10-6 13-5 4-12 5-18 5 1 5 2 10-1 14-5 7-15 8-22 5-6-3-10-9-12-16-6 2-13 3-19 2-5-1-9-4-11-8-4-5-4-12 0-17l10-7c-4-7-7-17-4-25 1-5 6-9 12-8 6 0 12 3 17 7 3-7 8-14 16-16 8-3 18 0 21 9Z" fill="#fff"/></g></g></svg>