<svg xmlns="http://www.w3.org/2000/svg" viewBox="0 0 980 980" fill="none" shape-rendering="auto"><metadata xmlns:rdf="http://www.w3.org/1999/02/22-rdf-syntax-ns#" xmlns:xsi="http://www.w3.org/2001/XMLSchema-instance" xmlns:dc="http://purl.org/dc/elements/1.1/" xmlns:dcterms="http://purl.org/dc/terms/"><rdf:RDF><rdf:Description><dc:title>Lorelei</dc:title><dc:creator>Lisa Wischofsky</dc:creator><dc:source xsi:type="dcterms:URI">https://www.figma.com/community/file/1198749693280469639</dc:source><dcterms:license xsi:type="dcterms:URI">https://creativecommons.org/publicdomain/zero/1.0/</dcterms:license><dc:rights>Remix of „Lorelei” (https://www.figma.com/community/file/1198749693280469639) by „Lisa Wischofsky”, licensed under „CC0 1.0” (https://creativecommons.org/publicdomain/zero/1.0/)</dc:rights></rdf:Description></rdf:RDF></metadata><mask id="viewboxMask"><rect width="980" height="980" rx="0" ry="0" x="0" y="0" fill="#fff" /></mask><g mask="url(#viewboxMask)"><g transform="translate(10 -60)"><path fill-rule="evenodd" clip-rule="evenodd" d="m555 134-4-1-18 3a266 266 0 0 0-97 46c-12 8-23 18-32 29a121 121 0 0 0-43-36l-17-9-7-2c-2 0-4 3-5 5 0 3 2 7 4 10l4 6 8 13 12 17 11 15a248 248 0 0 0-21 9l-14 7-10 5c-10 4-20 10-29 15l-4 2-19 12-3 3c-10 7-20 13-28 22-10 10-19 21-25 34a203 203 0 0 0-21 76l-1 6-4 38v75c0 10 1 20-1 29l-8 53c-6 31-11 62-13 94a185 185 0 0 0 38 138l11 8-3-6-4-5-8-18-2-3a291 291 0 0 1-16-51 206 206 0 0 0 52 79c9 8 19 15 31 18 4 0 7 0 9-3v-8l-1-7-2-9c14 11 29 18 46 21 10 3 21 2 31 0l14-1 8-1 49-4a1209 1209 0 0 1 118-8c15 1 30 4 45 7h10l6-1c13-2 25-5 38-9a179 179 0 0 0 46-25 164 164 0 0 1-19 44l-3 5c6 2 11 4 16 3 14-2 25-10 36-18l6-3 5-2a134 134 0 0 0 59-55c12-22 20-48 21-74 0-23-3-45-10-67l-14-37-3-9a2009 2009 0 0 1-20-53 455 455 0 0 1-21-75v-1c3-16 5-33 5-50-1-16-6-31-12-46a276 276 0 0 1 42 92 241 241 0 0 1 3 74c0 5-1 11 2 15l4-5 4-9 2-7c11-25 15-54 13-82-2-35-14-70-33-100-20-34-47-62-78-86a353 353 0 0 0-215-71l21-22v-1a140 140 0 0 1 41-34l13-7 6-6-2-1Zm215 484-6-14 1 4c3 20 7 40 8 61 2 27 2 54-2 80-3 21-8 43-19 62-5 10-12 19-19 28a174 174 0 0 0 61-120c0-18-2-36-7-54l-17-47Z" fill="#000000"/><path d="M495 234c28 1 56 6 84 15a201 201 0 0 1 100 65c19 25 31 55 35 86a361 361 0 0 1 2 101l-5 34-4 20c-1 2-1 2-3 2-2-4-2-8-2-12-1-15 1-29 2-44 1-24 3-48 1-72l-6-45c-7-28-20-54-40-75-18-18-40-33-63-43-22-9-44-15-67-19-18-3-36-4-54-4a277 277 0 0 0-128 29c-13 9-25 20-35 32a276 276 0 0 0-55 139c-1 24 0 47 8 70l7 15 12 1 1 3c-3 2-7 2-11 3-10 2-20 6-29 12-7 5-14 11-18 19-5 10-3 22-1 33 5 19 17 37 33 49 11 9 25 14 39 16 10 2 20 0 30-1 5 4 8 12 11 17l18 27a136 136 0 0 0 66 50c22 9 45 14 68 19l41 8 17 5v4h-12a535 535 0 0 1-67-8 255 255 0 0 1-84-33c-11-7-21-16-29-27a214 214 0 0 1-16 123c-15 27-40 48-70 57-3 1-7 2-10 1-2 0-2-1-2-3 1-3 4-5 6-6 12-8 26-14 38-23 13-11 24-23 31-38 6-15 10-32 12-49 2-13 3-26 2-40l-4-38-18-36-19 4a88 88 0 0 1-75-38 93 93 0 0 1-20-58c0-9 3-18 8-25s12-13 19-17c5-4 12-6 18-8l-9-24c-5-22-5-45-2-67a292 292 0 0 1 63-149c9-10 18-19 29-26 7-4 14-5 20-9 43-19 90-25 137-22Z" fill="#000"/><path d="M475 243a276 276 0 0 1 121 23c23 10 45 25 63 43 20 21 33 47 40 75l6 45c2 24 0 48-1 72-1 15-3 29-2 44 0 4 0 8 2 12l-1 20c-2 5-2 10-2 16-2 24-2 49-6 74-1 12-3 25-8 36-3 9-8 17-15 24-12 13-27 24-43 33-19 11-39 16-58 24-5 2-10 4-13 8 8 1 15 0 23-2-5 12-6 24-6 36 0 5-1 11 1 16 3 5 8 9 13 12l35 13c22 8 43 18 65 27 2 4 5 7 6 12 6 11 7 23 3 35-5 13-15 24-27 31-16 11-36 19-55 24a494 494 0 0 1-235-7c-20-7-40-14-58-24-14-8-29-18-40-31-6-8-11-19-12-29a122 122 0 0 0 86-107c4-24 4-49 0-73 8 11 18 20 29 27l27 14a331 331 0 0 0 124 27h12v-4l-17-5-41-8c-23-5-46-10-68-19-13-6-27-13-39-21-10-9-19-18-27-29l-18-27c-3-5-6-13-11-17-10 1-20 3-30 1-14-2-28-7-39-16a94 94 0 0 1-33-49c-2-11-4-23 1-33 4-8 11-14 18-19 9-6 19-10 29-12 4-1 8-1 11-3l-1-3-12-1-7-15c-8-23-9-46-7-70a276 276 0 0 1 54-139c10-12 22-23 35-32a277 277 0 0 1 128-30Z" fill="#ffffff"/><path d="M260 571c4 0 7 0 11 2 5 1 11 4 14 8 2 3 2 7 0 10-5 6-12 10-16 16 6 4 14 6 21 9 4 1 8 3 11 6l1 3-8-2-24-7c-4-1-8-3-9-7-1-3 1-7 3-10l15-13c-4-7-15-8-19-15ZM703 577l2 3 2 16a483 483 0 0 1-2 89c-2 11-5 23-10 33a198 198 0 0 1-106 71c-1 14-3 31-2 47l5 5c8 6 18 9 27 12a451 451 0 0 1 68 28c7 4 13 9 18 15-5 1-10-1-16-2-22-9-43-19-65-27l-35-13c-5-3-10-7-13-12-2-5-1-11-1-16 0-12 1-24 6-36-8 2-15 3-23 2 3-4 8-6 13-8 19-8 39-13 58-24 16-9 31-20 43-33 7-7 12-15 15-24 5-11 7-24 8-36 4-25 4-50 6-74 0-6 0-11 2-16Z" fill="#000"/><path d="M455 468c14 0 27 5 38 13 15 10 26 25 30 43v14c-1 1-2 2-4 1-3-3-5-8-7-12-8-14-18-28-32-36-10-6-22-8-33-6 7 12 11 26 11 40 0 9-4 16-8 24-2 2-5 1-7 1-7 0-13-2-20-4-3-2-8-4-10-8l-1-14 4-19-6 8c-3 4-10 4-13 0-3-3-3-8-1-12 6-8 13-16 22-22 11-8 24-11 37-11ZM684 488c2 1 3 3 0 4l-15 8c5 0 10-1 15 2 3 1 6 5 6 9-4 4-9 7-15 7-15 0-30 3-44 10-3 1-8 2-11-1-4-3-4-9-2-12 2-4 5-6 8-8l45-17c4-1 9-3 13-2Z" fill="#000000"/><g fill="#000000"><path d="M675 381c5 0 8 4 9 8-11 3-23 8-34 13l-16 8c-7 4-14 7-22 9-5 1-9 0-13 3l-7 8c-3 3-4 7-6 12-1-1-3-2-3-4-2-5 0-11 2-16 2-6 3-12 8-17 3-4 5-8 9-10 4-3 10-4 14 0l1 6 25-14c11-4 21-8 33-6ZM481 383c14 2 32 1 44 7 9 4 13 11 18 19l-1 4c-4 3-9 4-14 2-4-2-6-6-9-8-2-2-5-2-8-3l-25-2c-12-1-24-6-36-7l-27-5-5-2c9-3 19-4 29-5 11 0 23-2 34 0Z"/><path d="M540 387c6-2 12-2 16 2 6 3 9 9 11 15 0-4 2-9 5-12 6 3 11 9 13 15 1 5 2 10 0 15s-9 8-13 5c-4-4-4-12-5-18-1 4-2 8-5 10s-7 1-9-2l-5-12-7-15-1-3Z"/></g><path d="M293 643c3-2 7-1 9 1 3 2 4 6 3 10-2 4-7 7-12 5-3-1-5-5-4-8 0-4 1-7 4-8Z" fill="#000000"/><path d="M676 575c3-2 7 0 7 4 0 3-3 4-6 4-3-1-4-6-1-8ZM366 583c2-1 5 0 7 1 2 3 2 7 0 10-3 2-6 2-9 0-3-3-2-9 2-11ZM624 584c1-1 4-1 5 1 0 2 0 4-2 4-3 1-5-3-3-5ZM649 584c5-2 10 3 8 7s-7 6-10 3-2-8 2-10ZM475 586c2-1 6 1 5 3 1 2-1 4-4 4-3-1-3-5-1-7ZM691 587c3-2 7 0 7 3 1 3-3 5-6 4-2-1-2-5-1-7ZM412 587c5 0 8 6 6 10-1 2-4 3-6 4-2-1-5-2-6-4-2-4 2-10 6-10ZM339 595c4-1 7 1 7 5-1 4-5 5-8 3-2-2-2-6 1-8ZM670 600c4-2 8 1 8 5s-5 7-8 4c-3-2-3-7 0-9ZM450 604c3 0 3 2 5 4l-2 3c-3 3-7 1-8-2 0-3 2-6 5-5ZM384 617c4 0 7 2 8 6 0 4-3 8-7 8-3 0-6-2-7-5-1-4 2-9 6-9Z" fill="#000000"/><path d="M607 606c0 3-2 6-4 9-4 6-11 10-18 12-5 1-9-2-13 0-4 0-8 1-12-1-2-1-2-4 0-6 3-4 8-7 12-7 4-1 7-1 10 2l1 7c5-2 7-5 11-8l13-8Z" fill="#000000"/><path fill-rule="evenodd" clip-rule="evenodd" d="M438 634c-4 6-11 11-19 13 0-4 3-7 6-9 4-3 8-5 13-4Zm14 12 32 5 24 6c15 4 29 8 44 10 10 1 20 0 29-1 12-2 23-4 36-1 6 2 11 6 15 11 3 5 4 10 2 16s-7 13-13 17c-7 5-15 6-24 7l-30 3-29-2-21-5-10-3-12-3-14-4-23-8-17-10c-7-5-10-15-8-23 2-9 10-15 19-15Zm4 9-9 1c-4 1-7 4-8 8 0 3 2 6 3 8v1l8 8 4 2c0-9 0-19 4-27l-2-1Zm9 2a703 703 0 0 1 40 10c-2 11-5 22-4 33l-22-6-14-5-4-2 4-17v-13Zm87 20c-14-1-27-5-41-8a46 46 0 0 1-1 18c-1 5-2 10-5 14l9 2 13 4 17 3 5 1c-3-10 0-21 2-30l1-4Zm54-5c4 0 8 0 12 2 3 1 6 5 8 8 1 2 2 5 1 8-3 5-7 10-12 13s-10 4-16 5l-2 1 7-18 2-19Zm-13 25 5-25-15 3-23 2c0 10-2 19-5 29l-2 5a135 135 0 0 0 35-1l4-1 1-12Z" fill="#000000"/><path fill-rule="evenodd" clip-rule="evenodd" d="m550 141 7-6c-5-3-10-2-15-1h-2c-25 6-49 14-71 26-25 14-47 30-65 51a119 119 0 0 0-40-34 390 390 0 0 1-22-12h-8c-2 2-2 5-1 7a36 36 0 0 0 5 11 707 707 0 0 1 22 31l11 17h-2l-17 8-6 3-12 6-19 10-11 6-23 13-1 1-25 17c-10 8-19 18-26 28-8 13-10 27-13 41l-1 4-6 45-3 33-1 20-2 32-1 21c0 15-2 30-3 44a4695 4695 0 0 0-3 44c0 27 1 54 6 81 3 15 9 30 16 44a115 115 0 0 0 28 39l6 5 7-7 24-37a296 296 0 0 0 61 80 255 255 0 0 0 44 30c3 1 6 3 9 2 2 0 2-2 2-4l-6-6-6-6a305 305 0 0 1-38-105 557 557 0 0 1-7-148c8 30 20 59 36 85l2 3 16 25 1 1c3 4 5 7 9 9l-2-9-1-4a452 452 0 0 1-14-208 366 366 0 0 0 134-130c11-15 21-30 30-46l6 4c4 24 2 47-1 70v8c-3 20-8 39-17 57l-1 3-3 5c2 1 3 2 5 1 4-1 6-4 9-7l16-31c11-29 13-60 12-90a406 406 0 0 1 71 83 273 273 0 0 1 25 68 257 257 0 0 1-3 134c-1 3-2 6-1 9 5 0 9-3 12-6 6-6 11-14 16-21l1-1a204 204 0 0 0 33-75 582 582 0 0 0 10-84c-1-16-5-30-11-45a287 287 0 0 1 44 110c2 15 3 31 2 46v6l-1 11v2c0 3 0 5 3 7l3-7 4-7 2-6c11-26 15-56 13-85-3-37-16-73-36-103-20-31-46-58-75-80a357 357 0 0 0-215-72l5-5 25-28a122 122 0 0 1 32-24l12-7ZM438 385c16-23 32-47 45-72l-6 6-17 16a234 234 0 0 0-63 104c15-16 29-35 41-54Z" fill="#000000"/></g><g transform="translate(10 -60)"></g></g></svg>