<svg xmlns="http://www.w3.org/2000/svg" viewBox="0 0 980 980" fill="none" shape-rendering="auto"><metadata xmlns:rdf="http://www.w3.org/1999/02/22-rdf-syntax-ns#" xmlns:xsi="http://www.w3.org/2001/XMLSchema-instance" xmlns:dc="http://purl.org/dc/elements/1.1/" xmlns:dcterms="http://purl.org/dc/terms/"><rdf:RDF><rdf:Description><dc:title>Lorelei</dc:title><dc:creator>Lisa Wischofsky</dc:creator><dc:source xsi:type="dcterms:URI">https://www.figma.com/community/file/1198749693280469639</dc:source><dcterms:license xsi:type="dcterms:URI">https://creativecommons.org/publicdomain/zero/1.0/</dcterms:license><dc:rights>Remix of „Lorelei” (https://www.figma.com/community/file/1198749693280469639) by „Lisa Wischofsky”, licensed under „CC0 1.0” (https://creativecommons.org/publicdomain/zero/1.0/)</dc:rights></rdf:Description></rdf:RDF></metadata><mask id="viewboxMask"><rect width="980" height="980" rx="0" ry="0" x="0" y="0" fill="#fff" /></mask><g mask="url(#viewboxMask)"><g transform="translate(10 -60)"><path fill-rule="evenodd" clip-rule="evenodd" d="M668 255a406 406 0 0 0-207-40c-18 2-36 4-53 11-20-2-39 2-58 9-11 4-21 8-31 14a206 206 0 0 0-79 85l-10 16-15 27c-8 18-14 35-18 54l-7 40-5 32a625 625 0 0 1-31 109l-6 19c-8 26-14 54-15 81-1 22 2 45 11 65 5 10 12 20 21 27 9 6 19 8 30 9l10 14 7 10 7 10c8 9 18 16 28 21h9c3-2 3-6 4-9v-24c15 16 36 29 59 31 12-1 25-2 37-5 2-1 4 0 6 1h2c11 6 24 10 37 9 3 0 6-1 8-3 1-2 1-3-1-5-6-3-10-7-15-12 32-8 65-13 98-11 26 1 52 6 77 12l18 3c9 3 17 5 26 5 21 1 42-6 60-17 19-11 36-24 50-41l-11 22-6 8a332 332 0 0 0-7 13c4 0 6-1 9-3l1-1c14-11 25-26 32-42l8-26c9 16 16 33 20 51l1 19a448 448 0 0 0 1 6c0 2 0 5 2 6h4c4-4 8-10 10-15a214 214 0 0 0 8-118l-1-11-5-29-3-19-5-24a766 766 0 0 1-6-38l-2-12v-2l-5-38v-3l-3-42 1-35v-8c2-16 4-34 0-49-2-10-6-19-11-28-4-9-9-18-17-24l-4-1 6 16 5 12c6 20 7 42 6 63l-4-11v-2l-19-53a1549 1549 0 0 0-42-99l-11-22-1-3c-1-2-2-5-5-5ZM197 532l2-20-4 17-1 3c-9 32-19 63-30 94v2c-10 28-17 57-19 87-2 18 0 38 6 55 4 10 10 21 19 28 6 5 13 7 21 9l-2-4a158 158 0 0 1-21-83c1-30 5-59 10-88l6-27 7-34 6-38v-1Z" fill="#000000"/><path d="M528 244c41 6 80 22 113 47 28 21 50 49 65 81 13 28 20 60 19 91-1 15-3 30-8 44h-2l1-21c1-30-2-59-13-87-10-30-28-57-50-79-42-40-98-62-156-63a243 243 0 0 0-196 94 207 207 0 0 0-40 139l2 25c8 0 19 0 25 7l-3 3-17 1c-12 1-24 5-33 13a64 64 0 0 0-17 39c-5 32 12 65 39 83 16 10 36 15 55 9 4-2 9-5 14-3 3 1 4 4 5 7a251 251 0 0 0 90 100c8 7 18 13 28 18 18 8 38 14 57 19l32 8c5 1 9 1 13 3l-4 1c-25 2-48-3-72-10-12-3-23-7-34-12a306 306 0 0 1-84-63l2 28c1 17 0 35-6 52-4 12-11 24-19 34-10 10-22 19-34 26-10 7-21 14-32 18l-16 5 9-9 31-20 22-17a95 95 0 0 0 32-56c2-14 2-28 2-43v-27c-10-14-22-29-27-46-17 8-38 7-55-1-17-7-32-19-43-33-12-17-19-36-21-56s2-40 15-56c9-10 22-18 35-21-4-14-6-29-6-44a234 234 0 0 1 83-173 249 249 0 0 1 199-55Z" fill="#000"/><path d="M653 320c22 22 40 49 50 79 11 28 14 57 13 87l-1 21-5 15-2 13 2 56c0 21 1 42-1 63l-3 47c-2 16-7 31-14 45-11 18-26 33-44 44-13 8-27 12-41 16l-38 11-17 3c0 1 1 2 3 2 8 5 17 5 26 4-3 7-4 14-2 22 3 7 11 11 17 14 12 6 24 7 36 9 7 6 14 14 16 24 2 8 2 16-2 23-5 10-14 18-24 23-13 8-27 14-42 18a468 468 0 0 1-222-1c-17-4-33-9-48-17-12-6-23-13-32-22-5-7-9-14-10-23 11-4 22-11 32-18 12-7 24-16 34-26 8-10 15-22 19-34 6-17 7-35 6-52l-2-28 22 23c19 15 40 30 62 40 11 5 22 9 34 12 24 7 47 12 72 10l4-1c-4-2-8-2-13-3l-32-8c-19-5-39-11-57-19l-29-17c-11-9-23-17-33-27a251 251 0 0 1-56-74c-1-3-2-6-5-7-5-2-10 1-14 3-19 6-39 1-55-9a88 88 0 0 1-39-83c1-14 7-28 17-39 9-8 21-12 33-13l17-1 3-3c-6-7-17-7-25-7l-2-25a207 207 0 0 1 40-139 243 243 0 0 1 196-94c58 1 114 23 156 63Z" fill="#ffffff"/><path d="M710 522c3 0 3 4 4 6 3 11 4 23 5 34l2 21c1 22 2 43 1 65-1 21-1 44-5 65a136 136 0 0 1-80 99c-15 7-31 11-48 13v15c1 3 3 4 5 6 12 6 23 8 36 11 12 3 24 5 36 11-3 3-7 4-11 4-7 1-15-1-23-1-12-2-24-3-36-9-6-3-14-7-17-14-2-8-1-15 2-22-9 1-18 1-26-4-2 0-3-1-3-2l17-3 38-11c14-4 28-8 41-16 18-11 33-26 44-44 7-14 12-29 14-45l3-47c2-21 1-42 1-63l-2-56 2-13ZM252 549c8 0 17 1 23 7 5 4 10 9 12 15 1 3 0 6-2 8l-13 8c-7 6-7 19 0 25 6 5 14 8 21 11 2 0 5 1 6 3-1 2-3 3-5 3-10 0-20-3-28-9-5-3-8-8-9-13-2-8-2-17 4-24 4-6 11-9 18-12-4-5-7-11-14-13-7-3-15-3-22-5l9-4Z" fill="#000"/><path d="M681 473c6 2 13 7 15 14 2 4 1 9-3 12-5 2-10 0-12-4-3-3-7-7-12-8-4-1-9 0-13 2l4 5c4 6 5 14 5 21s-2 14-4 20c3-1 6-4 10-4 0 4 0 7-2 10-5 6-13 10-21 11s-17 2-24-3c-5-3-5-8-5-13l-2-6c0-10 4-19 9-27 7-11 17-20 29-26 8-4 17-6 26-4ZM473 519c14 2 28 6 42 11 3 1 6 1 8 4 4 3 4 9 0 12-3 2-7 2-11 2h-45c-13 0-28 1-41-1l-7-3-14 2c-2 0-5 0-6-2-3-2-2-6 0-8s6-3 9-4c9-2 18-4 27-4l9-1-16-1c-6-1-13 0-19-2-2 0-3-1-3-3s2-2 3-3l15-2c16-1 33 0 49 3Z" fill="#000000"/><path d="M524 402c7 3 12 9 15 16 4 6 6 12 4 19-1 2-2 5-4 3-3-2-5-6-6-9l-14 2-26 3-39 4c-12 1-24 0-36-1-3 0-7-1-9-3-3-2-2-7 1-8 9-3 20-2 30-4 7-1 14-4 20-6 9-3 17-7 26-9l20-5c5-1 12-4 18-2ZM631 404c11 0 19 6 30 8 6 2 14 1 20 5 2 1 3 4 2 7-2 2-5 2-8 2l-14 1-25 6-23 2-5 18-3 3-2-5c-1-10 0-21 5-30 2-4 4-9 8-12 4-4 10-6 15-5Z" fill="#000000"/><path d="M594 572a37 37 0 0 1 19 29c0 9-5 18-13 22l-17 7c-4 1-6 2-9 0-2-3-1-4 1-6 6-5 15-7 21-12 3-2 5-5 5-9 0-10-5-17-7-26v-5Z" fill="#000000"/><path d="M516 651c18 5 31 16 48 21 7 3 14 4 21 2 11-2 21-8 32-10 8-1 17 1 22 7 5 5 7 12 7 19 0 8-4 16-9 23a84 84 0 0 1-53 26l-26-1c-14-2-27-6-40-13-6-4-13-9-17-15l13 7c16 8 33 14 51 15 8 0 17 0 25-2 10-2 19-6 27-12 6-4 11-8 15-14s6-15 3-22c-2-5-6-8-11-8-7-1-14 2-20 5l6 5c5 9 8 21 6 31-5-7-11-15-14-24-2-3-2-7-1-11-10 4-20 7-31 5l-1 11-5 25c-3-5-3-9-3-14 0-8 0-16 2-24-11-3-21-8-31-14-6 13-15 24-20 36-3-5-1-11 1-16 3-9 7-17 13-23-7-3-14-6-21-7s-14 2-18 7c-6 6-7 15-4 23 2 5 6 8 9 12-5 1-9-2-12-5-6-7-9-17-6-26 2-9 10-17 20-20 7-2 15-1 22 1Z" fill="#000000"/><path fill-rule="evenodd" clip-rule="evenodd" d="M669 255a406 406 0 0 0-196-41 247 247 0 0 0-66 12c-14-2-29 0-42 4-26 8-50 24-70 42-33 29-58 65-73 106-8 22-13 45-13 68 0 20 5 40 16 58a74 74 0 0 0 36 30l2 2a741 741 0 0 0-3 53c-2 26-2 53-1 79 2 29 5 60 14 89 5 17 12 34 22 49 14 22 34 39 57 51 15 8 32 15 49 14 3 0 7-1 9-3 1-3-2-4-4-6l-2-1c-14-10-22-24-30-39-14-29-25-60-29-92-4-39-4-79-3-118v-1l1-39 2-61c10-2 19-6 27-11 13-6 24-16 34-26a178 178 0 0 0 55-117l1-22v-3a968 968 0 0 0 150 92 515 515 0 0 0 130 40l3 1 5-1 15-16v-1l2-4c3-25 0-52-8-76-12-39-37-73-69-98v-1c-7-5-13-10-21-13ZM442 373l-6 11-1 4c-12 22-25 43-44 60l-23 16c-6 5-13 8-21 11l-1 6v11l4-2h2c10-4 19-10 27-17 14-11 27-24 37-40 11-15 18-33 23-51l1-3 2-6Z" fill="#000000"/></g><g transform="translate(10 -60)"></g></g></svg>